<?xml version="1.0" encoding="utf-8"?>
<!-- Generator: Adobe Illustrator 17.1.0, SVG Export Plug-In . SVG Version: 6.00 Build 0)  -->
<!DOCTYPE svg PUBLIC "-//W3C//DTD SVG 1.0//EN" "http://www.w3.org/TR/2001/REC-SVG-20010904/DTD/svg10.dtd">
<svg xmlns="http://www.w3.org/2000/svg" xmlns:xlink="http://www.w3.org/1999/xlink" version="1.0" id="Layer_1" x="0px" y="0px" width="100px" height="100px" viewBox="0 0 50 50" style="enable-background:new 0 0 50 50;" xml:space="preserve">
<circle style="fill:none;stroke:#fff;stroke-width:2;stroke-linecap:round;stroke-linejoin:round;stroke-miterlimit:10;" cx="17" cy="8" r="5"/>
<circle style="fill:none;stroke:#fff;stroke-width:2;stroke-linecap:round;stroke-linejoin:round;stroke-miterlimit:10;" cx="25" cy="27" r="6"/>
<path style="fill:none;stroke:#fff;stroke-width:2;stroke-linecap:round;stroke-linejoin:round;stroke-miterlimit:10;" d="M33,41  c0-4.4-3.6-8-8-8s-8,3.6-8,8c0,0.9,0,4.5,0,4.5s2,1.5,8,1.5s8-1.5,8-1.5S33,41.9,33,41z"/>
<circle style="fill:none;stroke:#fff;stroke-width:2;stroke-linecap:round;stroke-linejoin:round;stroke-miterlimit:10;" cx="41" cy="21" r="6"/>
<path style="fill:none;stroke:#fff;stroke-width:2;stroke-linecap:round;stroke-linejoin:round;stroke-miterlimit:10;" d="M49,35  c0-4.4-3.6-8-8-8s-8,3.6-8,8c0,0.9,0,4.5,0,4.5s2,1.5,8,1.5s8-1.5,8-1.5S49,35.9,49,35z"/>
<circle style="fill:none;stroke:#fff;stroke-width:2;stroke-linecap:round;stroke-linejoin:round;stroke-miterlimit:10;" cx="9" cy="21" r="6"/>
<path style="fill:none;stroke:#fff;stroke-width:2;stroke-linecap:round;stroke-linejoin:round;stroke-miterlimit:10;" d="M17,35  c0-4.4-3.6-8-8-8s-8,3.6-8,8c0,0.9,0,4.5,0,4.5S3,41,9,41s8-1.5,8-1.5S17,35.9,17,35z"/>
<path style="fill:none;stroke:#fff;stroke-width:2;stroke-linecap:round;stroke-linejoin:round;stroke-miterlimit:10;" d="  M24,20.8c0,0,0-0.5,0-0.8c0-3.9-3.1-7-7-7c-2.2,0-4.1,1-5.4,2.6"/>
<circle style="fill:none;stroke:#fff;stroke-width:2;stroke-linecap:round;stroke-linejoin:round;stroke-miterlimit:10;" cx="32.8" cy="8" r="5"/>
<path style="fill:none;stroke:#fff;stroke-width:2;stroke-linecap:round;stroke-linejoin:round;stroke-miterlimit:10;" d="  M25.8,20.8c0,0,0-0.5,0-0.8c0-3.9,3.1-7,7-7c2.2,0,4.1,1,5.4,2.6"/>
</svg>
